<?xml version="1.0" encoding="utf-8"?><svg width="198" height="198" viewBox="0 0 198 198" xmlns="http://www.w3.org/2000/svg" xmlns:xlink="http://www.w3.org/1999/xlink"><svg width="26" height="26" viewBox="-1 -1 26 26" id="ic_button_24px" x="104" y="172" xmlns="http://www.w3.org/2000/svg"><defs><path id="aa" d="M-240.34-17.17c-18.22 0-33 15.15-33 33.84 0 14.95 9.45 27.63 22.57 32.11 1.65.31 2.25-.74 2.25-1.63 0-.8-.03-2.93-.04-5.75-9.18 2.04-11.12-4.54-11.12-4.54-1.5-3.91-3.66-4.95-3.66-4.95-3-2.1.23-2.06.23-2.06 3.31.24 5.05 3.49 5.05 3.49 2.94 5.17 7.72 3.68 9.6 2.81.3-2.19 1.15-3.68 2.09-4.52-7.33-.85-15.03-3.76-15.03-16.72 0-3.69 1.29-6.71 3.4-9.08-.34-.86-1.47-4.3.32-8.95 0 0 2.77-.91 9.08 3.47 2.63-.75 5.46-1.13 8.26-1.14 2.8.01 5.63.39 8.26 1.14 6.3-4.38 9.07-3.47 9.07-3.47 1.8 4.66.67 8.1.33 8.95 2.11 2.37 3.39 5.39 3.39 9.08 0 13-7.72 15.86-15.07 16.7 1.19 1.04 2.24 3.11 2.24 6.27 0 4.52-.04 8.17-.04 9.28 0 .91.59 1.96 2.27 1.63 13.1-4.48 22.55-17.16 22.55-32.1.01-18.71-14.77-33.86-33-33.86"/></defs><clipPath id="ab"><use xlink:href="#aa" overflow="visible"/></clipPath><g clip-path="url(#ab)"><defs><path id="ac" d="M-1121.33-2471.17h1680v3369h-1680z"/></defs><clipPath id="ad"><use xlink:href="#ac" overflow="visible"/></clipPath><path clip-path="url(#ad)" d="M-278.33-22.17h76v76h-76z"/></g><path d="M12 2C6.48 2 2 6.48 2 12s4.48 10 10 10 10-4.48 10-10S17.52 2 12 2zm0 18c-4.41 0-8-3.59-8-8s3.59-8 8-8 8 3.59 8 8-3.59 8-8 8z"/><path d="M13 7h-2v4H7v2h4v4h2v-4h4v-2h-4z"/><path fill="none" d="M0 0h24v24H0z"/></svg><svg width="26" height="26" viewBox="-1 -1 26 26" id="ic_card_24px" x="172" xmlns="http://www.w3.org/2000/svg"><defs><path id="ba" d="M-240.34-61.17c-18.22 0-33 15.15-33 33.84 0 14.95 9.45 27.63 22.57 32.11 1.65.31 2.25-.74 2.25-1.63 0-.8-.03-2.93-.04-5.75-9.18 2.04-11.12-4.54-11.12-4.54-1.5-3.91-3.66-4.95-3.66-4.95-3-2.1.23-2.06.23-2.06 3.31.24 5.05 3.49 5.05 3.49 2.94 5.17 7.72 3.68 9.6 2.81.3-2.19 1.15-3.68 2.09-4.52-7.33-.85-15.03-3.76-15.03-16.72 0-3.69 1.29-6.71 3.4-9.08-.34-.86-1.47-4.3.32-8.95 0 0 2.77-.91 9.08 3.47 2.63-.75 5.46-1.13 8.26-1.14 2.8.01 5.63.39 8.26 1.14 6.3-4.38 9.07-3.47 9.07-3.47 1.8 4.66.67 8.1.33 8.95 2.11 2.37 3.39 5.39 3.39 9.08 0 13-7.72 15.86-15.07 16.7 1.19 1.04 2.24 3.11 2.24 6.27 0 4.52-.04 8.17-.04 9.28 0 .91.59 1.96 2.27 1.63 13.1-4.48 22.55-17.16 22.55-32.1.01-18.71-14.77-33.86-33-33.86"/></defs><clipPath id="bb"><use xlink:href="#ba" overflow="visible"/></clipPath><g clip-path="url(#bb)"><defs><path id="bc" d="M-1121.33-2515.17h1680v3369h-1680z"/></defs><clipPath id="bd"><use xlink:href="#bc" overflow="visible"/></clipPath><path clip-path="url(#bd)" d="M-278.33-66.17h76v76h-76z"/></g><path d="M20 4v16H4V4h16m2-2H2v20h20V2z"/><path d="M5 12.54h6.46V19H5zm7.54 0H19V19h-6.46zM5 5h6.46v6.46H5zm7.54 0H19v6.46h-6.46z"/><path fill="none" d="M0 0h24v24H0z"/></svg><svg width="26" height="26" viewBox="-1 -1 26 26" id="ic_chips_24dp" x="146" y="26" xmlns="http://www.w3.org/2000/svg"><defs><path id="ca" d="M-240.34-105.17c-18.22 0-33 15.15-33 33.84 0 14.95 9.45 27.63 22.57 32.11 1.65.31 2.25-.74 2.25-1.63 0-.8-.03-2.93-.04-5.75-9.18 2.04-11.12-4.54-11.12-4.54-1.5-3.91-3.66-4.95-3.66-4.95-3-2.1.23-2.06.23-2.06 3.31.24 5.05 3.49 5.05 3.49 2.94 5.17 7.72 3.68 9.6 2.81.3-2.19 1.15-3.68 2.09-4.52-7.33-.85-15.03-3.76-15.03-16.72 0-3.69 1.29-6.71 3.4-9.08-.34-.86-1.47-4.3.32-8.95 0 0 2.77-.91 9.08 3.47 2.63-.75 5.46-1.13 8.26-1.14 2.8.01 5.63.39 8.26 1.14 6.3-4.38 9.07-3.47 9.07-3.47 1.8 4.66.67 8.1.33 8.95 2.11 2.37 3.39 5.39 3.39 9.08 0 13-7.72 15.86-15.07 16.7 1.19 1.04 2.24 3.11 2.24 6.27 0 4.52-.04 8.17-.04 9.28 0 .91.59 1.96 2.27 1.63 13.1-4.48 22.55-17.16 22.55-32.1.01-18.71-14.77-33.86-33-33.86"/></defs><clipPath id="cb"><use xlink:href="#ca" overflow="visible"/></clipPath><g clip-path="url(#cb)"><defs><path id="cc" d="M-1121.33-2559.17h1680v3369h-1680z"/></defs><clipPath id="cd"><use xlink:href="#cc" overflow="visible"/></clipPath><path clip-path="url(#cd)" d="M-278.33-110.17h76v76h-76z"/></g><path d="M2 2v20h20V2H2zm2 18V4h16v16H4zm12.5-6.5h-9c-.83 0-1.5-.67-1.5-1.5s.67-1.5 1.5-1.5h9c.83 0 1.5.67 1.5 1.5s-.67 1.5-1.5 1.5z"/><path fill="none" d="M0 0h24v24H0z"/></svg><svg id="ic_component_24px" width="26" height="26" viewBox="-1 -1 26 26" x="146" y="52" xmlns="http://www.w3.org/2000/svg"><style>.dst0{fill:none}</style><path d="M16 8.1V2H2v14h6.1c.5 3.4 3.4 6 6.9 6 3.9 0 7-3.1 7-7 0-3.5-2.6-6.4-6-6.9zM8.1 14H4V4h10v4.1c-3.1.4-5.5 2.8-5.9 5.9zm5.9-3.9V14h-3.9c.4-2 1.9-3.5 3.9-3.9zm1 9.9c-2.4 0-4.4-1.7-4.9-4H16v-5.9c2.3.5 4 2.5 4 4.9 0 2.8-2.2 5-5 5z"/><path class="dst0" d="M0 0h24v24H0z"/></svg><svg id="ic_component_24px_white" width="26" height="26" viewBox="-1 -1 26 26" x="146" y="78" xmlns="http://www.w3.org/2000/svg"><style>.est0{fill:none}</style><path fill="#f0f0f0" d="M16 8.1V2H2v14h6.1c.5 3.4 3.4 6 6.9 6 3.9 0 7-3.1 7-7 0-3.5-2.6-6.4-6-6.9zM8.1 14H4V4h10v4.1c-3.1.4-5.5 2.8-5.9 5.9zm5.9-3.9V14h-3.9c.4-2 1.9-3.5 3.9-3.9zm1 9.9c-2.4 0-4.4-1.7-4.9-4H16v-5.9c2.3.5 4 2.5 4 4.9 0 2.8-2.2 5-5 5z"/><path class="est0" d="M0 0h24v24H0z"/></svg><svg width="26" height="26" viewBox="-1 -1 26 26" id="ic_dialog_24px" x="146" y="104" xmlns="http://www.w3.org/2000/svg"><defs><path id="fa" d="M-240.34-237.17c-18.22 0-33 15.15-33 33.84 0 14.95 9.45 27.63 22.57 32.11 1.65.31 2.25-.74 2.25-1.63 0-.8-.03-2.93-.04-5.75-9.18 2.04-11.12-4.54-11.12-4.54-1.5-3.91-3.66-4.95-3.66-4.95-3-2.1.23-2.06.23-2.06 3.31.24 5.05 3.49 5.05 3.49 2.94 5.17 7.72 3.68 9.6 2.81.3-2.19 1.15-3.68 2.09-4.52-7.33-.85-15.03-3.76-15.03-16.72 0-3.69 1.29-6.71 3.4-9.08-.34-.86-1.47-4.3.32-8.95 0 0 2.77-.91 9.08 3.47 2.63-.75 5.46-1.13 8.26-1.14 2.8.01 5.63.39 8.26 1.14 6.3-4.38 9.07-3.47 9.07-3.47 1.8 4.66.67 8.1.33 8.95 2.11 2.37 3.39 5.39 3.39 9.08 0 13-7.72 15.86-15.07 16.7 1.19 1.04 2.24 3.11 2.24 6.27 0 4.52-.04 8.17-.04 9.28 0 .91.59 1.96 2.27 1.63 13.1-4.48 22.55-17.16 22.55-32.1.01-18.71-14.77-33.86-33-33.86"/></defs><clipPath id="fb"><use xlink:href="#fa" overflow="visible"/></clipPath><g clip-path="url(#fb)"><defs><path id="fc" d="M-1121.33-2691.17h1680v3369h-1680z"/></defs><clipPath id="fd"><use xlink:href="#fc" overflow="visible"/></clipPath><path clip-path="url(#fd)" d="M-278.33-242.17h76v76h-76z"/></g><path d="M20 4v16H4V4h16m2-2H2v20h20V2z"/><path d="M7 7h10v10H7z"/><path fill="none" d="M0 0h24v24H0z"/></svg><svg width="26" height="26" viewBox="-1 -1 26 26" id="ic_list_24px" y="146" xmlns="http://www.w3.org/2000/svg"><defs><path id="ga" d="M-240.34-369.17c-18.22 0-33 15.15-33 33.84 0 14.95 9.45 27.63 22.57 32.11 1.65.31 2.25-.74 2.25-1.63 0-.8-.03-2.93-.04-5.75-9.18 2.04-11.12-4.54-11.12-4.54-1.5-3.91-3.66-4.95-3.66-4.95-3-2.1.23-2.06.23-2.06 3.31.24 5.05 3.49 5.05 3.49 2.94 5.17 7.72 3.68 9.6 2.81.3-2.19 1.15-3.68 2.09-4.52-7.33-.85-15.03-3.76-15.03-16.72 0-3.69 1.29-6.71 3.4-9.08-.34-.86-1.47-4.3.32-8.95 0 0 2.77-.91 9.08 3.47 2.63-.75 5.46-1.13 8.26-1.14 2.8.01 5.63.39 8.26 1.14 6.3-4.38 9.07-3.47 9.07-3.47 1.8 4.66.67 8.1.33 8.95 2.11 2.37 3.39 5.39 3.39 9.08 0 13-7.72 15.86-15.07 16.7 1.19 1.04 2.24 3.11 2.24 6.27 0 4.52-.04 8.17-.04 9.28 0 .91.59 1.96 2.27 1.63 13.1-4.48 22.55-17.16 22.55-32.1.01-18.71-14.77-33.86-33-33.86"/></defs><clipPath id="gb"><use xlink:href="#ga" overflow="visible"/></clipPath><g clip-path="url(#gb)"><defs><path id="gc" d="M-1121.33-2823.17h1680v3369h-1680z"/></defs><clipPath id="gd"><use xlink:href="#gc" overflow="visible"/></clipPath><path clip-path="url(#gd)" d="M-278.33-374.17h76v76h-76z"/></g><path d="M2 4h4v4H2zm6 0h14v4H8zm-6 6h4v4H2zm6 0h14v4H8zm-6 6h4v4H2zm6 0h14v4H8z"/><path fill="none" d="M0 0h24v24H0z"/></svg><svg width="26" height="26" viewBox="-1 -1 26 26" id="ic_menu_24px" x="26" y="146" xmlns="http://www.w3.org/2000/svg"><defs><path id="ha" d="M-240.34-413.17c-18.22 0-33 15.15-33 33.84 0 14.95 9.45 27.63 22.57 32.11 1.65.31 2.25-.74 2.25-1.63 0-.8-.03-2.93-.04-5.75-9.18 2.04-11.12-4.54-11.12-4.54-1.5-3.91-3.66-4.95-3.66-4.95-3-2.1.23-2.06.23-2.06 3.31.24 5.05 3.49 5.05 3.49 2.94 5.17 7.72 3.68 9.6 2.81.3-2.19 1.15-3.68 2.09-4.52-7.33-.85-15.03-3.76-15.03-16.72 0-3.69 1.29-6.71 3.4-9.08-.34-.86-1.47-4.3.32-8.95 0 0 2.77-.91 9.08 3.47 2.63-.75 5.46-1.13 8.26-1.14 2.8.01 5.63.39 8.26 1.14 6.3-4.38 9.07-3.47 9.07-3.47 1.8 4.66.67 8.1.33 8.95 2.11 2.37 3.39 5.39 3.39 9.08 0 13-7.72 15.86-15.07 16.7 1.19 1.04 2.24 3.11 2.24 6.27 0 4.52-.04 8.17-.04 9.28 0 .91.59 1.96 2.27 1.63 13.1-4.48 22.55-17.16 22.55-32.1.01-18.71-14.77-33.86-33-33.86"/></defs><clipPath id="hb"><use xlink:href="#ha" overflow="visible"/></clipPath><g clip-path="url(#hb)"><defs><path id="hc" d="M-1121.33-2867.17h1680v3369h-1680z"/></defs><clipPath id="hd"><use xlink:href="#hc" overflow="visible"/></clipPath><path clip-path="url(#hd)" d="M-278.33-418.17h76v76h-76z"/></g><path d="M2 2v20h20V2H2zm2 18V4h16v16H4z"/><path d="M11 5v8h8V5h-8z"/><path fill="none" d="M0 0h24v24H0z"/></svg><svg width="26" height="26" viewBox="-1 -1 26 26" id="ic_progress_activity" x="52" y="146" xmlns="http://www.w3.org/2000/svg"><defs><path id="ia" d="M-240.34-457.17c-18.22 0-33 15.15-33 33.84 0 14.95 9.45 27.63 22.57 32.11 1.65.31 2.25-.74 2.25-1.63 0-.8-.03-2.93-.04-5.75-9.18 2.04-11.12-4.54-11.12-4.54-1.5-3.91-3.66-4.95-3.66-4.95-3-2.1.23-2.06.23-2.06 3.31.24 5.05 3.49 5.05 3.49 2.94 5.17 7.72 3.68 9.6 2.81.3-2.19 1.15-3.68 2.09-4.52-7.33-.85-15.03-3.76-15.03-16.72 0-3.69 1.29-6.71 3.4-9.08-.34-.86-1.47-4.3.32-8.95 0 0 2.77-.91 9.08 3.47 2.63-.75 5.46-1.13 8.26-1.14 2.8.01 5.63.39 8.26 1.14 6.3-4.38 9.07-3.47 9.07-3.47 1.8 4.66.67 8.1.33 8.95 2.11 2.37 3.39 5.39 3.39 9.08 0 13-7.72 15.86-15.07 16.7 1.19 1.04 2.24 3.11 2.24 6.27 0 4.52-.04 8.17-.04 9.28 0 .91.59 1.96 2.27 1.63 13.1-4.48 22.55-17.16 22.55-32.1.01-18.71-14.77-33.86-33-33.86"/></defs><clipPath id="ib"><use xlink:href="#ia" overflow="visible"/></clipPath><g clip-path="url(#ib)"><defs><path id="ic" d="M-1121.33-2911.17h1680v3369h-1680z"/></defs><clipPath id="id"><use xlink:href="#ic" overflow="visible"/></clipPath><path clip-path="url(#id)" d="M-278.33-462.17h76v76h-76z"/></g><path d="M21 11c-.55 0-1 .45-1 1 0 4.41-3.59 8-8 8s-8-3.59-8-8 3.59-8 8-8c.55 0 1-.45 1-1s-.45-1-1-1C6.49 2 2 6.49 2 12s4.49 10 10 10 10-4.49 10-10c0-.55-.45-1-1-1z"/><path fill="none" d="M0 0h24v24H0z"/></svg><svg width="26" height="26" viewBox="-1 -1 26 26" id="ic_radio_button_24px" x="78" y="146" xmlns="http://www.w3.org/2000/svg"><path d="M12 7c-2.76 0-5 2.24-5 5s2.24 5 5 5 5-2.24 5-5-2.24-5-5-5zm0-5C6.48 2 2 6.48 2 12s4.48 10 10 10 10-4.48 10-10S17.52 2 12 2zm0 18c-4.42 0-8-3.58-8-8s3.58-8 8-8 8 3.58 8 8-3.58 8-8 8z"/><path d="M0 0h24v24H0z" fill="none"/></svg><svg width="26" height="26" viewBox="-1 -1 26 26" id="ic_responsive_layout_24px" x="104" y="146" xmlns="http://www.w3.org/2000/svg"><defs><path id="ka" d="M-240.34-501.17c-18.22 0-33 15.15-33 33.84 0 14.95 9.45 27.63 22.57 32.11 1.65.31 2.25-.74 2.25-1.63 0-.8-.03-2.93-.04-5.75-9.18 2.04-11.12-4.54-11.12-4.54-1.5-3.91-3.66-4.95-3.66-4.95-3-2.1.23-2.06.23-2.06 3.31.24 5.05 3.49 5.05 3.49 2.94 5.17 7.72 3.68 9.6 2.81.3-2.19 1.15-3.68 2.09-4.52-7.33-.85-15.03-3.76-15.03-16.72 0-3.69 1.29-6.71 3.4-9.08-.34-.86-1.47-4.3.32-8.95 0 0 2.77-.91 9.08 3.47 2.63-.75 5.46-1.13 8.26-1.14 2.8.01 5.63.39 8.26 1.14 6.3-4.38 9.07-3.47 9.07-3.47 1.8 4.66.67 8.1.33 8.95 2.11 2.37 3.39 5.39 3.39 9.08 0 13-7.72 15.86-15.07 16.7 1.19 1.04 2.24 3.11 2.24 6.27 0 4.52-.04 8.17-.04 9.28 0 .91.59 1.96 2.27 1.63 13.1-4.48 22.55-17.16 22.55-32.1.01-18.71-14.77-33.86-33-33.86"/></defs><clipPath id="kb"><use xlink:href="#ka" overflow="visible"/></clipPath><g clip-path="url(#kb)"><defs><path id="kc" d="M-1121.33-2955.17h1680v3369h-1680z"/></defs><clipPath id="kd"><use xlink:href="#kc" overflow="visible"/></clipPath><path clip-path="url(#kd)" d="M-278.33-506.17h76v76h-76z"/></g><path d="M8 2v6H2v14h20V2H8zm0 18H4V10h4v10zm12 0h-4V8h-6V4h10v16z"/><path fill="none" d="M0 0h24v24H0z"/></svg><svg width="26" height="26" viewBox="-1 -1 26 26" id="ic_ripple_24px" x="130" y="146" xmlns="http://www.w3.org/2000/svg"><defs><path id="la" d="M-240.34-545.17c-18.22 0-33 15.15-33 33.84 0 14.95 9.45 27.63 22.57 32.11 1.65.31 2.25-.74 2.25-1.63 0-.8-.03-2.93-.04-5.75-9.18 2.04-11.12-4.54-11.12-4.54-1.5-3.91-3.66-4.95-3.66-4.95-3-2.1.23-2.06.23-2.06 3.31.24 5.05 3.49 5.05 3.49 2.94 5.17 7.72 3.68 9.6 2.81.3-2.19 1.15-3.68 2.09-4.52-7.33-.85-15.03-3.76-15.03-16.72 0-3.69 1.29-6.71 3.4-9.08-.34-.86-1.47-4.3.32-8.95 0 0 2.77-.91 9.08 3.47 2.63-.75 5.46-1.13 8.26-1.14 2.8.01 5.63.39 8.26 1.14 6.3-4.38 9.07-3.47 9.07-3.47 1.8 4.66.67 8.1.33 8.95 2.11 2.37 3.39 5.39 3.39 9.08 0 13-7.72 15.86-15.07 16.7 1.19 1.04 2.24 3.11 2.24 6.27 0 4.52-.04 8.17-.04 9.28 0 .91.59 1.96 2.27 1.63 13.1-4.48 22.55-17.16 22.55-32.1.01-18.71-14.77-33.86-33-33.86"/></defs><clipPath id="lb"><use xlink:href="#la" overflow="visible"/></clipPath><g clip-path="url(#lb)"><defs><path id="lc" d="M-1121.33-2999.17h1680v3369h-1680z"/></defs><clipPath id="ld"><use xlink:href="#lc" overflow="visible"/></clipPath><path clip-path="url(#ld)" d="M-278.33-550.17h76v76h-76z"/></g><path d="M2 2v20h20V2H2zm2 18V4h9.76A4.47 4.47 0 0 0 13 6.5c0 2.49 2.01 4.5 4.5 4.5.93 0 1.78-.28 2.5-.76V20H4z"/><path fill="none" d="M0 0h24v24H0z"/></svg><svg width="26" height="26" viewBox="-1 -1 26 26" id="ic_selection_control_24px" x="146" xmlns="http://www.w3.org/2000/svg"><defs><path id="ma" d="M-240.34-633.17c-18.22 0-33 15.15-33 33.84 0 14.95 9.45 27.63 22.57 32.11 1.65.31 2.25-.74 2.25-1.63 0-.8-.03-2.93-.04-5.75-9.18 2.04-11.12-4.54-11.12-4.54-1.5-3.91-3.66-4.95-3.66-4.95-3-2.1.23-2.06.23-2.06 3.31.24 5.05 3.49 5.05 3.49 2.94 5.17 7.72 3.68 9.6 2.81.3-2.19 1.15-3.68 2.09-4.52-7.33-.85-15.03-3.76-15.03-16.72 0-3.69 1.29-6.71 3.4-9.08-.34-.86-1.47-4.3.32-8.95 0 0 2.77-.91 9.08 3.47 2.63-.75 5.46-1.13 8.26-1.14 2.8.01 5.63.39 8.26 1.14 6.3-4.38 9.07-3.47 9.07-3.47 1.8 4.66.67 8.1.33 8.95 2.11 2.37 3.39 5.39 3.39 9.08 0 13-7.72 15.86-15.07 16.7 1.19 1.04 2.24 3.11 2.24 6.27 0 4.52-.04 8.17-.04 9.28 0 .91.59 1.96 2.27 1.63 13.1-4.48 22.55-17.16 22.55-32.1.01-18.71-14.77-33.86-33-33.86"/></defs><clipPath id="mb"><use xlink:href="#ma" overflow="visible"/></clipPath><g clip-path="url(#mb)"><defs><path id="mc" d="M-1121.33-3087.17h1680v3369h-1680z"/></defs><clipPath id="md"><use xlink:href="#mc" overflow="visible"/></clipPath><path clip-path="url(#md)" d="M-278.33-638.17h76v76h-76z"/></g><path d="M10 17l-5-5 1.41-1.41L10 14.17l7.59-7.59L19 8z"/><path d="M20 4v16H4V4h16m2-2H2v20h20V2z"/><path fill="none" d="M0 0h24v24H0z"/></svg><svg width="26" height="26" viewBox="-1 -1 26 26" id="ic_shadow_24px" x="172" y="26" xmlns="http://www.w3.org/2000/svg"><path d="M6 2v16h16V2H6zm14 14H8V4h12v12z"/><path d="M4 4H2v18h18v-2H4z"/><path fill="none" d="M0 0h24v24H0z"/></svg><svg width="26" height="26" viewBox="-1 -1 26 26" id="ic_side_navigation_24px" x="172" y="52" xmlns="http://www.w3.org/2000/svg"><defs><path id="oa" d="M-240.34-677.17c-18.22 0-33 15.15-33 33.84 0 14.95 9.45 27.63 22.57 32.11 1.65.31 2.25-.74 2.25-1.63 0-.8-.03-2.93-.04-5.75-9.18 2.04-11.12-4.54-11.12-4.54-1.5-3.91-3.66-4.95-3.66-4.95-3-2.1.23-2.06.23-2.06 3.31.24 5.05 3.49 5.05 3.49 2.94 5.17 7.72 3.68 9.6 2.81.3-2.19 1.15-3.68 2.09-4.52-7.33-.85-15.03-3.76-15.03-16.72 0-3.69 1.29-6.71 3.4-9.08-.34-.86-1.47-4.3.32-8.95 0 0 2.77-.91 9.08 3.47 2.63-.75 5.46-1.13 8.26-1.14 2.8.01 5.63.39 8.26 1.14 6.3-4.38 9.07-3.47 9.07-3.47 1.8 4.66.67 8.1.33 8.95 2.11 2.37 3.39 5.39 3.39 9.08 0 13-7.72 15.86-15.07 16.7 1.19 1.04 2.24 3.11 2.24 6.27 0 4.52-.04 8.17-.04 9.28 0 .91.59 1.96 2.27 1.63 13.1-4.48 22.55-17.16 22.55-32.1.01-18.71-14.77-33.86-33-33.86"/></defs><clipPath id="ob"><use xlink:href="#oa" overflow="visible"/></clipPath><g clip-path="url(#ob)"><defs><path id="oc" d="M-1121.33-3131.17h1680v3369h-1680z"/></defs><clipPath id="od"><use xlink:href="#oc" overflow="visible"/></clipPath><path clip-path="url(#od)" d="M-278.33-682.17h76v76h-76z"/></g><path d="M2 22h20V2H2v20zm18-2h-8V4h8v16z"/><path fill="none" d="M0 0h24v24H0z"/></svg><svg width="26" height="26" viewBox="-1 -1 26 26" id="ic_switch_24px" x="172" y="78" xmlns="http://www.w3.org/2000/svg"><defs><path id="pa" d="M-240.34-853.17c-18.22 0-33 15.15-33 33.84 0 14.95 9.45 27.63 22.57 32.11 1.65.31 2.25-.74 2.25-1.63 0-.8-.03-2.93-.04-5.75-9.18 2.04-11.12-4.54-11.12-4.54-1.5-3.91-3.66-4.95-3.66-4.95-3-2.1.23-2.06.23-2.06 3.31.24 5.05 3.49 5.05 3.49 2.94 5.17 7.72 3.68 9.6 2.81.3-2.19 1.15-3.68 2.09-4.52-7.33-.85-15.03-3.76-15.03-16.72 0-3.69 1.29-6.71 3.4-9.08-.34-.86-1.47-4.3.32-8.95 0 0 2.77-.91 9.08 3.47 2.63-.75 5.46-1.13 8.26-1.14 2.8.01 5.63.39 8.26 1.14 6.3-4.38 9.07-3.47 9.07-3.47 1.8 4.66.67 8.1.33 8.95 2.11 2.37 3.39 5.39 3.39 9.08 0 13-7.72 15.86-15.07 16.7 1.19 1.04 2.24 3.11 2.24 6.27 0 4.52-.04 8.17-.04 9.28 0 .91.59 1.96 2.27 1.63 13.1-4.48 22.55-17.16 22.55-32.1.01-18.71-14.77-33.86-33-33.86"/></defs><clipPath id="pb"><use xlink:href="#pa" overflow="visible"/></clipPath><g clip-path="url(#pb)"><defs><path id="pc" d="M-1121.33-3307.17h1680v3369h-1680z"/></defs><clipPath id="pd"><use xlink:href="#pc" overflow="visible"/></clipPath><path clip-path="url(#pd)" d="M-278.33-858.17h76v76h-76z"/></g><path d="M19 9h-8.02C10.06 7.79 8.63 7 7 7c-2.76 0-5 2.24-5 5s2.24 5 5 5c1.63 0 3.06-.79 3.98-2H19c1.66 0 3-1.34 3-3s-1.34-3-3-3zm0 4h-7.1c.07-.32.1-.66.1-1s-.04-.68-.1-1H19c.55 0 1 .45 1 1s-.45 1-1 1z"/><path fill="none" d="M0 0h24v24H0z"/></svg><svg width="26" height="26" viewBox="-1 -1 26 26" id="ic_tabs_24px" x="172" y="104" xmlns="http://www.w3.org/2000/svg"><defs><path id="qa" d="M-240.34-897.17c-18.22 0-33 15.15-33 33.84 0 14.95 9.45 27.63 22.57 32.11 1.65.31 2.25-.74 2.25-1.63 0-.8-.03-2.93-.04-5.75-9.18 2.04-11.12-4.54-11.12-4.54-1.5-3.91-3.66-4.95-3.66-4.95-3-2.1.23-2.06.23-2.06 3.31.24 5.05 3.49 5.05 3.49 2.94 5.17 7.72 3.68 9.6 2.81.3-2.19 1.15-3.68 2.09-4.52-7.33-.85-15.03-3.76-15.03-16.72 0-3.69 1.29-6.71 3.4-9.08-.34-.86-1.47-4.3.32-8.95 0 0 2.77-.91 9.08 3.47 2.63-.75 5.46-1.13 8.26-1.14 2.8.01 5.63.39 8.26 1.14 6.3-4.38 9.07-3.47 9.07-3.47 1.8 4.66.67 8.1.33 8.95 2.11 2.37 3.39 5.39 3.39 9.08 0 13-7.72 15.86-15.07 16.7 1.19 1.04 2.24 3.11 2.24 6.27 0 4.52-.04 8.17-.04 9.28 0 .91.59 1.96 2.27 1.63 13.1-4.48 22.55-17.16 22.55-32.1.01-18.71-14.77-33.86-33-33.86"/></defs><clipPath id="qb"><use xlink:href="#qa" overflow="visible"/></clipPath><g clip-path="url(#qb)"><defs><path id="qc" d="M-1121.33-3351.17h1680v3369h-1680z"/></defs><clipPath id="qd"><use xlink:href="#qc" overflow="visible"/></clipPath><path clip-path="url(#qd)" d="M-278.33-902.17h76v76h-76z"/></g><path d="M2 2v20h20V2H2zm18 18H4V10h16v10zm0-12h-8V5h8v3z"/><path fill="none" d="M0 0h24v24H0z"/></svg><svg width="26" height="26" viewBox="-1 -1 26 26" id="ic_text_field_24px" x="172" y="130" xmlns="http://www.w3.org/2000/svg"><path d="M2 19h20v2H2zM19 3h1v14h-1zM9.51 3l-5.5 14h2.25l1.12-3h6.25l1.12 3H17L11.51 3h-2zm-1.38 9l2.38-6.33L12.89 12H8.13z"/><path fill="none" d="M0 0h24v24H0z"/></svg><svg width="26" height="26" viewBox="-1 -1 26 26" id="ic_theme_24px" y="172" xmlns="http://www.w3.org/2000/svg"><path d="M12 2l-5.5 9h11z"/><circle cx="17.5" cy="17.5" r="4.5"/><path d="M3 13.5h8v8H3z"/><path fill="none" d="M0 0h24v24H0z"/></svg><svg width="26" height="26" viewBox="-1 -1 26 26" id="ic_toast_24px" x="26" y="172" xmlns="http://www.w3.org/2000/svg"><path d="M20 20H4V4h16M2 2v20h20V2"/><path d="M5 17h14v2H5z"/><path fill="none" d="M0 0h24v24H0z"/></svg><svg width="26" height="26" viewBox="-1 -1 26 26" id="ic_toolbar_24px" x="52" y="172" xmlns="http://www.w3.org/2000/svg"><path d="M2 2v20h20V2H2zm2 2h16v3H4V4zm0 16V9h16v11H4z"/><path fill="none" d="M0 0h24v24H0z"/></svg><svg width="26" height="26" viewBox="-1 -1 26 26" id="ic_typography_24px" x="78" y="172" xmlns="http://www.w3.org/2000/svg"><defs><path id="va" d="M24 24H0V0h24v24z"/></defs><clipPath id="vb"><use xlink:href="#va" overflow="visible"/></clipPath><path clip-path="url(#vb)" d="M2.5 4v3h5v12h3V7h5V4h-13zm19 5h-9v3h3v7h3v-7h3V9z"/></svg><svg viewBox="-1 -1 146 146" width="146" height="146" id="icons_light" xmlns="http://www.w3.org/2000/svg"><circle cx="72" cy="72" r="72" fill="#2979ff"/><path fill="none" d="M144 144H0V0h144z"/><circle cx="72" cy="72" r="48" fill="#40c4ff"/><circle cx="72" cy="72" r="24" fill="#fff"/></svg><svg width="26" height="26" viewBox="-1 -1 26 26" id="material" x="130" y="172" xmlns="http://www.w3.org/2000/svg"><path fill="none" d="M0 0h24v24H0z"/><path d="M23 12c0-6.07-4.93-11-11-11S1 5.93 1 12s4.93 11 11 11 11-4.93 11-11zM5 17.64C3.75 16.1 3 14.14 3 12c0-2.13.76-4.08 2-5.63v11.27zM17.64 5H6.36C7.9 3.75 9.86 3 12 3s4.1.75 5.64 2zM12 14.53L8.24 7h7.53L12 14.53zM17 9v8h-4l4-8zm-6 8H7V9l4 8zm6.64 2a8.955 8.955 0 0 1-11.28 0h11.28zM21 12c0 2.14-.75 4.1-2 5.64V6.37c1.24 1.55 2 3.5 2 5.63z"/></svg><svg width="26" height="26" viewBox="-1 -1 26 26" id="slider" x="156" y="172" xmlns="http://www.w3.org/2000/svg"><defs><path id="ya" d="M-240.34-721.17c-18.22 0-33 15.15-33 33.84 0 14.95 9.45 27.63 22.57 32.11 1.65.31 2.25-.74 2.25-1.63 0-.8-.03-2.93-.04-5.75-9.18 2.04-11.12-4.54-11.12-4.54-1.5-3.91-3.66-4.95-3.66-4.95-3-2.1.23-2.06.23-2.06 3.31.24 5.05 3.49 5.05 3.49 2.94 5.17 7.72 3.68 9.6 2.81.3-2.19 1.15-3.68 2.09-4.52-7.33-.85-15.03-3.76-15.03-16.72 0-3.69 1.29-6.71 3.4-9.08-.34-.86-1.47-4.3.32-8.95 0 0 2.77-.91 9.08 3.47 2.63-.75 5.46-1.13 8.26-1.14 2.8.01 5.63.39 8.26 1.14 6.3-4.38 9.07-3.47 9.07-3.47 1.8 4.66.67 8.1.33 8.95 2.11 2.37 3.39 5.39 3.39 9.08 0 13-7.72 15.86-15.07 16.7 1.19 1.04 2.24 3.11 2.24 6.27 0 4.52-.04 8.17-.04 9.28 0 .91.59 1.96 2.27 1.63 13.1-4.48 22.55-17.16 22.55-32.1.01-18.71-14.77-33.86-33-33.86"/></defs><clipPath id="yb"><use xlink:href="#ya" overflow="visible"/></clipPath><g clip-path="url(#yb)"><defs><path id="yc" d="M-1121.33-3175.17h1680v3369h-1680z"/></defs><clipPath id="yd"><use xlink:href="#yc" overflow="visible"/></clipPath><path clip-path="url(#yd)" d="M-278.33-726.17h76v76h-76z"/></g><path d="M19 9H5c-1.66 0-3 1.34-3 3s1.34 3 3 3h14c1.66 0 3-1.34 3-3s-1.34-3-3-3zm0 4h-5v-2h5c.55 0 1 .45 1 1s-.45 1-1 1z"/><path fill="none" d="M0 0h24v24H0z"/></svg></svg>